<?xml version="1.0" encoding="utf-8"?>
<!-- Generator: Adobe Illustrator 27.5.0, SVG Export Plug-In . SVG Version: 6.00 Build 0)  -->
<svg version="1.1" id="Layer_1" xmlns="http://www.w3.org/2000/svg" xmlns:xlink="http://www.w3.org/1999/xlink" x="0px" y="0px"
	 viewBox="0 0 32 32" style="enable-background:new 0 0 32 32;" xml:space="preserve">
<style type="text/css">
	.st0{fill:#090111;}
	.st1{fill:#190526;}
	.st2{fill:#2C0947;}
	.st3{fill:#341D6E;}
	.st4{fill:#D13667;}
	.st5{fill:#747C8C;}
	.st6{fill:#3A58AC;}
	.st7{fill:#C5CAD1;}
</style>
<g>
	<g id="XMLID_00000051344269296038216590000006873910769060960427_">
		<g>
			<polygon class="st0" points="27.9,5.8 27.9,9.7 26.1,9.7 26.1,10.7 18.9,10.7 18.1,10.7 17.2,10.7 17.2,9.7 16.3,9.7 16.3,10.7 
				15.5,10.7 14.6,10.7 14.6,11.6 13.7,11.6 12.8,11.6 12.8,12.6 12,12.6 12,11.6 11.1,11.6 11.1,10.7 11.1,9.7 11.1,8.7 11.1,7.7 
				11.1,6.8 12,6.8 12.8,6.8 13.7,6.8 14.6,6.8 15.5,6.8 16.3,6.8 17.2,6.8 18.1,6.8 18.9,6.8 19.8,6.8 20.7,6.8 20.7,5.8 21.6,5.8 
				22.4,5.8 22.4,4.8 22.4,3.9 22.4,2.9 22.4,1.9 22.4,1 			"/>
			<polygon class="st0" points="25.3,18.4 25.3,19.4 24.4,19.4 24.4,20.3 23.5,20.3 23.5,21.3 22.7,21.3 22.7,20.3 19.2,20.3 
				19.2,21.3 18.3,21.3 17.4,21.3 16.5,21.3 16.5,31 14.8,31 14.8,32 13.9,32 13.9,31 13.1,31 13.1,32 12.2,32 12.2,31 10.6,31 
				5.2,26.2 5.9,26.2 6.7,26.2 6.7,27.1 7.6,27.1 7.6,26.2 8.5,26.2 8.5,27.1 9.3,27.1 9.3,26.2 10.2,26.2 11.1,26.2 11.1,25.2 
				11.1,24.2 11.1,23.2 11.1,22.3 11.1,21.3 11.1,20.3 11.1,19.4 11.1,18.4 11.1,17.4 12,17.4 12.8,17.4 13.7,17.4 14.6,17.4 
				14.6,16.5 15.5,16.5 16.3,16.5 17.2,16.5 18.1,16.5 18.1,17.4 18.9,17.4 18.9,16.5 19.8,16.5 19.8,15.5 20.7,15.5 20.7,14.5 
				20.7,13.6 19.8,13.6 19.8,12.6 19.8,11.6 18.9,11.6 18.9,10.7 24.4,15.5 24.4,17.4 25.3,17.4 			"/>
			<rect x="21.6" y="4.8" class="st1" width="0.9" height="1"/>
			<rect x="21.6" y="3.9" class="st1" width="0.9" height="1"/>
			<rect x="21.6" y="2.9" class="st1" width="0.9" height="1"/>
			<rect x="21.6" y="1.9" class="st2" width="0.9" height="1"/>
			<polygon class="st3" points="22.4,1 22.4,1.9 21.6,1.9 21.6,1.1 			"/>
			<polygon class="st3" points="22.4,1 21.6,1.1 21.6,1 			"/>
			<rect x="20.7" y="4.8" class="st1" width="0.9" height="1"/>
			<rect x="20.7" y="3.9" class="st2" width="0.9" height="1"/>
			<rect x="20.7" y="2.9" class="st2" width="0.9" height="1"/>
			<rect x="20.7" y="1.9" class="st4" width="0.9" height="1"/>
			<polygon class="st3" points="21.6,1.1 21.6,1.9 20.7,1.9 20.7,1.3 			"/>
			<polygon class="st3" points="21.6,1 21.6,1.1 20.7,1.3 20.7,1 			"/>
			<rect x="19.8" y="14.5" class="st4" width="0.9" height="1"/>
			<rect x="19.8" y="13.6" class="st1" width="0.9" height="1"/>
			<rect x="19.8" y="5.8" class="st1" width="0.9" height="1"/>
			<rect x="19.8" y="4.8" class="st1" width="0.9" height="1"/>
			<rect x="19.8" y="3.9" class="st2" width="0.9" height="1"/>
			<rect x="19.8" y="2.9" class="st4" width="0.9" height="1"/>
			<rect x="19.8" y="1.9" class="st3" width="0.9" height="1"/>
			<polygon class="st4" points="20.7,1.3 20.7,1.9 19.8,1.9 19.8,1.5 			"/>
			<polygon class="st4" points="20.7,1 20.7,1.3 19.8,1.5 19.8,1 			"/>
			<rect x="18.9" y="15.5" class="st4" width="0.9" height="1"/>
			<rect x="18.9" y="14.5" class="st1" width="0.9" height="1"/>
			<rect x="18.9" y="13.6" class="st4" width="0.9" height="1"/>
			<rect x="18.9" y="12.6" class="st2" width="0.9" height="1"/>
			<rect x="18.9" y="11.6" class="st2" width="0.9" height="1"/>
			<rect x="18.9" y="5.8" class="st2" width="0.9" height="1"/>
			<rect x="18.9" y="4.8" class="st2" width="0.9" height="1"/>
			<rect x="18.9" y="3.9" class="st2" width="0.9" height="1"/>
			<rect x="18.9" y="2.9" class="st1" width="0.9" height="1"/>
			<rect x="18.9" y="1.9" class="st3" width="0.9" height="1"/>
			<polygon class="st3" points="19.8,1.5 19.8,1.9 18.9,1.9 18.9,1.7 			"/>
			<polygon class="st3" points="19.8,1 19.8,1.5 18.9,1.7 18.9,1 			"/>
			<rect x="18.1" y="16.5" class="st4" width="0.9" height="1"/>
			<rect x="18.1" y="15.5" class="st1" width="0.9" height="1"/>
			<rect x="18.1" y="14.5" class="st4" width="0.9" height="1"/>
			<rect x="18.1" y="13.6" class="st1" width="0.9" height="1"/>
			<rect x="18.1" y="12.6" class="st4" width="0.9" height="1"/>
			<rect x="18.1" y="11.6" class="st4" width="0.9" height="1"/>
			<rect x="18.1" y="10.7" class="st5" width="0.9" height="1"/>
			<rect x="18.1" y="5.8" class="st1" width="0.9" height="1"/>
			<rect x="18.1" y="4.8" class="st1" width="0.9" height="1"/>
			<rect x="18.1" y="3.9" class="st4" width="0.9" height="1"/>
			<rect x="18.1" y="2.9" class="st3" width="0.9" height="1"/>
			<rect x="18.1" y="1.9" class="st3" width="0.9" height="1"/>
			<polygon class="st4" points="18.9,1.7 18.9,1.9 18.1,1.9 18.1,1.9 			"/>
			<polygon class="st4" points="18.9,1 18.9,1.7 18.1,1.9 18.1,1 			"/>
			<rect x="17.2" y="15.5" class="st4" width="0.9" height="1"/>
			<rect x="17.2" y="14.5" class="st1" width="0.9" height="1"/>
			<rect x="17.2" y="13.6" class="st2" width="0.9" height="1"/>
			<rect x="17.2" y="12.6" class="st3" width="0.9" height="1"/>
			<rect x="17.2" y="11.6" class="st5" width="0.9" height="1"/>
			<rect x="17.2" y="10.7" class="st6" width="0.9" height="1"/>
			<rect x="17.2" y="5.8" class="st4" width="0.9" height="1"/>
			<rect x="17.2" y="4.8" class="st4" width="0.9" height="1"/>
			<rect x="17.2" y="3.9" class="st6" width="0.9" height="1"/>
			<rect x="17.2" y="2.9" class="st4" width="0.9" height="1"/>
			<polygon class="st6" points="18.1,1.9 18.1,2.9 17.2,2.9 17.2,2.1 17.8,1.9 			"/>
			<polygon class="st6" points="18.1,1.9 18.1,1.9 17.8,1.9 			"/>
			<polygon class="st6" points="18.1,1 18.1,1.9 17.8,1.9 17.2,1.9 17.2,1 			"/>
			<polygon class="st6" points="17.8,1.9 17.2,2.1 17.2,1.9 			"/>
			<rect x="16.3" y="15.5" class="st1" width="0.9" height="1"/>
			<rect x="16.3" y="14.5" class="st4" width="0.9" height="1"/>
			<rect x="16.3" y="13.6" class="st4" width="0.9" height="1"/>
			<rect x="16.3" y="12.6" class="st3" width="0.9" height="1"/>
			<rect x="16.3" y="11.6" class="st7" width="0.9" height="1"/>
			<rect x="16.3" y="10.7" class="st7" width="0.9" height="1"/>
			<rect x="16.3" y="9.7" class="st6" width="0.9" height="1"/>
			<rect x="16.3" y="5.8" class="st4" width="0.9" height="1"/>
			<rect x="16.3" y="4.8" class="st4" width="0.9" height="1"/>
			<rect x="16.3" y="3.9" class="st4" width="0.9" height="1"/>
			<rect x="16.3" y="2.9" class="st4" width="0.9" height="1"/>
			<polygon class="st6" points="17.2,2.1 17.2,2.9 16.3,2.9 16.3,2.2 			"/>
			<polygon class="st6" points="17.2,1.9 17.2,2.1 16.3,2.2 16.3,1.9 			"/>
			<rect x="16.3" y="1" class="st4" width="0.9" height="1"/>
			<rect x="15.5" y="15.5" class="st4" width="0.9" height="1"/>
			<rect x="15.5" y="14.5" class="st1" width="0.9" height="1"/>
			<rect x="15.5" y="13.6" class="st2" width="0.9" height="1"/>
			<rect x="15.5" y="12.6" class="st7" width="0.9" height="1"/>
			<rect x="15.5" y="11.6" class="st6" width="0.9" height="1"/>
			<rect x="15.5" y="10.7" class="st7" width="0.9" height="1"/>
			<rect x="15.5" y="5.8" class="st2" width="0.9" height="1"/>
			<rect x="15.5" y="4.8" class="st6" width="0.9" height="1"/>
			<rect x="15.5" y="3.9" class="st5" width="0.9" height="1"/>
			<rect x="15.5" y="2.9" class="st7" width="0.9" height="1"/>
			<polygon class="st7" points="16.3,2.2 16.3,2.9 15.5,2.9 15.5,2.4 			"/>
			<polygon class="st7" points="16.3,1.9 16.3,2.2 15.5,2.4 15.5,1.9 			"/>
			<rect x="15.5" y="1" class="st6" width="0.9" height="1"/>
			<rect x="15.5" class="st5" width="0.9" height="1"/>
			<rect x="14.6" y="15.5" class="st1" width="0.9" height="1"/>
			<rect x="14.6" y="14.5" class="st2" width="0.9" height="1"/>
			<rect x="14.6" y="13.6" class="st2" width="0.9" height="1"/>
			<rect x="14.6" y="12.6" class="st6" width="0.9" height="1"/>
			<rect x="14.6" y="11.6" class="st7" width="0.9" height="1"/>
			<rect x="14.6" y="10.7" class="st6" width="0.9" height="1"/>
			<rect x="14.6" y="5.8" class="st2" width="0.9" height="1"/>
			<rect x="14.6" y="4.8" class="st7" width="0.9" height="1"/>
			<rect x="14.6" y="3.9" class="st6" width="0.9" height="1"/>
			<rect x="14.6" y="2.9" class="st6" width="0.9" height="1"/>
			<polygon class="st3" points="15.5,2.4 15.5,2.9 14.6,2.9 14.6,2.6 			"/>
			<polygon class="st3" points="15.5,1.9 15.5,2.4 14.6,2.6 14.6,1.9 			"/>
			<rect x="14.6" y="1" class="st6" width="0.9" height="1"/>
			<rect x="14.6" class="st7" width="0.9" height="1"/>
			<rect x="13.7" y="16.5" class="st2" width="0.9" height="1"/>
			<rect x="13.7" y="15.5" class="st2" width="0.9" height="1"/>
			<rect x="13.7" y="14.5" class="st1" width="0.9" height="1"/>
			<rect x="13.7" y="13.6" class="st4" width="0.9" height="1"/>
			<rect x="13.7" y="12.6" class="st4" width="0.9" height="1"/>
			<rect x="13.7" y="11.6" class="st5" width="0.9" height="1"/>
			<rect x="13.7" y="5.8" class="st2" width="0.9" height="1"/>
			<rect x="13.7" y="4.8" class="st4" width="0.9" height="1"/>
			<rect x="13.7" y="3.9" class="st7" width="0.9" height="1"/>
			<rect x="13.7" y="2.9" class="st7" width="0.9" height="1"/>
			<polygon class="st6" points="14.6,2.6 14.6,2.9 13.7,2.9 13.7,2.8 			"/>
			<polygon class="st6" points="14.6,1.9 14.6,2.6 13.7,2.8 13.7,1.9 			"/>
			<rect x="13.7" y="1" class="st6" width="0.9" height="1"/>
			<rect x="12.8" y="16.5" class="st1" width="0.9" height="1"/>
			<rect x="12.8" y="15.5" class="st4" width="0.9" height="1"/>
			<rect x="12.8" y="14.5" class="st4" width="0.9" height="1"/>
			<rect x="12.8" y="13.6" class="st6" width="0.9" height="1"/>
			<rect x="12.8" y="12.6" class="st7" width="0.9" height="1"/>
			<rect x="12.8" y="11.6" class="st7" width="0.9" height="1"/>
			<rect x="12.8" y="5.8" class="st2" width="0.9" height="1"/>
			<rect x="12.8" y="4.8" class="st6" width="0.9" height="1"/>
			<rect x="12.8" y="3.9" class="st6" width="0.9" height="1"/>
			<polygon class="st6" points="13.7,2.9 13.7,3.9 12.8,3.9 12.8,3 13.1,2.9 			"/>
			<polygon class="st7" points="13.7,2.8 13.7,2.9 13.1,2.9 			"/>
			<polygon class="st7" points="13.7,1.9 13.7,2.8 13.1,2.9 12.8,2.9 12.8,1.9 			"/>
			<rect x="12.8" y="1" class="st5" width="0.9" height="1"/>
			<polygon class="st6" points="13.1,2.9 12.8,3 12.8,2.9 			"/>
			<rect x="12" y="16.5" class="st2" width="0.9" height="1"/>
			<rect x="12" y="15.5" class="st4" width="0.9" height="1"/>
			<rect x="12" y="14.5" class="st6" width="0.9" height="1"/>
			<rect x="12" y="13.6" class="st7" width="0.9" height="1"/>
			<rect x="12" y="12.6" class="st3" width="0.9" height="1"/>
			<rect x="12" y="5.8" class="st2" width="0.9" height="1"/>
			<rect x="12" y="4.8" class="st6" width="0.9" height="1"/>
			<rect x="12" y="3.9" class="st7" width="0.9" height="1"/>
			<polygon class="st7" points="12.8,3 12.8,3.9 12,3.9 12,3.1 			"/>
			<polygon class="st7" points="12.8,2.9 12.8,3 12,3.1 12,2.9 			"/>
			<rect x="12" y="1.9" class="st6" width="0.9" height="1"/>
			<rect x="11.1" y="16.5" class="st4" width="0.9" height="1"/>
			<rect x="11.1" y="15.5" class="st2" width="0.9" height="1"/>
			<rect x="11.1" y="14.5" class="st3" width="0.9" height="1"/>
			<rect x="11.1" y="13.6" class="st5" width="0.9" height="1"/>
			<rect x="11.1" y="12.6" class="st3" width="0.9" height="1"/>
			<rect x="11.1" y="11.6" class="st7" width="0.9" height="1"/>
			<rect x="11.1" y="5.8" class="st4" width="0.9" height="1"/>
			<rect x="11.1" y="4.8" class="st4" width="0.9" height="1"/>
			<rect x="11.1" y="3.9" class="st5" width="0.9" height="1"/>
			<polygon class="st7" points="12,3.1 12,3.9 11.1,3.9 11.1,3.3 			"/>
			<polygon class="st7" points="12,2.9 12,3.1 11.1,3.3 11.1,2.9 			"/>
			<rect x="11.1" y="1.9" class="st6" width="0.9" height="1"/>
			<rect x="11.1" y="1" class="st7" width="0.9" height="1"/>
			<rect x="11.1" class="st7" width="0.9" height="1"/>
			<rect x="10.2" y="25.2" class="st1" width="0.9" height="1"/>
			<rect x="10.2" y="24.2" class="st2" width="0.9" height="1"/>
			<rect x="10.2" y="23.2" class="st2" width="0.9" height="1"/>
			<rect x="10.2" y="22.3" class="st2" width="0.9" height="1"/>
			<rect x="10.2" y="21.3" class="st4" width="0.9" height="1"/>
			<rect x="10.2" y="20.3" class="st2" width="0.9" height="1"/>
			<rect x="10.2" y="19.4" class="st4" width="0.9" height="1"/>
			<rect x="10.2" y="18.4" class="st2" width="0.9" height="1"/>
			<rect x="10.2" y="17.4" class="st4" width="0.9" height="1"/>
			<rect x="10.2" y="16.5" class="st2" width="0.9" height="1"/>
			<rect x="10.2" y="15.5" class="st4" width="0.9" height="1"/>
			<rect x="10.2" y="14.5" class="st7" width="0.9" height="1"/>
			<rect x="10.2" y="13.6" class="st3" width="0.9" height="1"/>
			<rect x="10.2" y="12.6" class="st3" width="0.9" height="1"/>
			<rect x="10.2" y="11.6" class="st5" width="0.9" height="1"/>
			<rect x="10.2" y="10.7" class="st7" width="0.9" height="1"/>
			<rect x="10.2" y="9.7" class="st1" width="0.9" height="1"/>
			<rect x="10.2" y="8.7" class="st5" width="0.9" height="1"/>
			<rect x="10.2" y="7.7" class="st7" width="0.9" height="1"/>
			<rect x="10.2" y="6.8" class="st4" width="0.9" height="1"/>
			<rect x="10.2" y="5.8" class="st6" width="0.9" height="1"/>
			<rect x="10.2" y="4.8" class="st7" width="0.9" height="1"/>
			<rect x="10.2" y="3.9" class="st3" width="0.9" height="1"/>
			<polygon class="st7" points="11.1,3.3 11.1,3.9 10.2,3.9 10.2,3.5 			"/>
			<polygon class="st7" points="11.1,2.9 11.1,3.3 10.2,3.5 10.2,2.9 			"/>
			<rect x="10.2" y="1.9" class="st7" width="0.9" height="1"/>
			<rect x="10.2" y="1" class="st5" width="0.9" height="1"/>
			<rect x="9.3" y="25.2" class="st2" width="0.9" height="1"/>
			<rect x="9.3" y="24.2" class="st2" width="0.9" height="1"/>
			<rect x="9.3" y="23.2" class="st2" width="0.9" height="1"/>
			<rect x="9.3" y="22.3" class="st1" width="0.9" height="1"/>
			<rect x="9.3" y="21.3" class="st2" width="0.9" height="1"/>
			<rect x="9.3" y="20.3" class="st4" width="0.9" height="1"/>
			<rect x="9.3" y="19.4" class="st2" width="0.9" height="1"/>
			<rect x="9.3" y="18.4" class="st2" width="0.9" height="1"/>
			<rect x="9.3" y="17.4" class="st2" width="0.9" height="1"/>
			<rect x="9.3" y="16.5" class="st7" width="0.9" height="1"/>
			<rect x="9.3" y="15.5" class="st5" width="0.9" height="1"/>
			<rect x="9.3" y="14.5" class="st4" width="0.9" height="1"/>
			<rect x="9.3" y="13.6" class="st3" width="0.9" height="1"/>
			<rect x="9.3" y="12.6" class="st4" width="0.9" height="1"/>
			<rect x="9.3" y="11.6" class="st1" width="0.9" height="1"/>
			<rect x="9.3" y="10.7" class="st3" width="0.9" height="1"/>
			<rect x="9.3" y="9.7" class="st4" width="0.9" height="1"/>
			<rect x="9.3" y="8.7" class="st1" width="0.9" height="1"/>
			<rect x="9.3" y="7.7" class="st4" width="0.9" height="1"/>
			<rect x="9.3" y="6.8" class="st7" width="0.9" height="1"/>
			<rect x="9.3" y="5.8" class="st7" width="0.9" height="1"/>
			<rect x="9.3" y="4.8" class="st5" width="0.9" height="1"/>
			<rect x="9.3" y="3.9" class="st7" width="0.9" height="1"/>
			<polygon class="st7" points="10.2,3.5 10.2,3.9 9.3,3.9 9.3,3.7 			"/>
			<polygon class="st7" points="10.2,2.9 10.2,3.5 9.3,3.7 9.3,2.9 			"/>
			<rect x="8.5" y="26.2" class="st1" width="0.9" height="1"/>
			<rect x="8.5" y="25.2" class="st1" width="0.9" height="1"/>
			<rect x="8.5" y="24.2" class="st1" width="0.9" height="1"/>
			<rect x="8.5" y="23.2" class="st1" width="0.9" height="1"/>
			<rect x="8.5" y="22.3" class="st2" width="0.9" height="1"/>
			<rect x="8.5" y="21.3" class="st2" width="0.9" height="1"/>
			<rect x="8.5" y="20.3" class="st3" width="0.9" height="1"/>
			<rect x="8.5" y="19.4" class="st2" width="0.9" height="1"/>
			<rect x="8.5" y="18.4" class="st4" width="0.9" height="1"/>
			<rect x="8.5" y="17.4" class="st2" width="0.9" height="1"/>
			<rect x="8.5" y="16.5" class="st1" width="0.9" height="1"/>
			<rect x="8.5" y="15.5" class="st4" width="0.9" height="1"/>
			<rect x="8.5" y="14.5" class="st6" width="0.9" height="1"/>
			<rect x="8.5" y="13.6" class="st7" width="0.9" height="1"/>
			<rect x="8.5" y="12.6" class="st3" width="0.9" height="1"/>
			<rect x="8.5" y="11.6" class="st4" width="0.9" height="1"/>
			<rect x="8.5" y="10.7" class="st1" width="0.9" height="1"/>
			<rect x="8.5" y="9.7" class="st4" width="0.9" height="1"/>
			<rect x="8.5" y="8.7" class="st6" width="0.9" height="1"/>
			<rect x="8.5" y="7.7" class="st7" width="0.9" height="1"/>
			<rect x="8.5" y="6.8" class="st7" width="0.9" height="1"/>
			<rect x="8.5" y="5.8" class="st6" width="0.9" height="1"/>
			<rect x="8.5" y="4.8" class="st6" width="0.9" height="1"/>
			<rect x="8.5" y="3.9" class="st6" width="0.9" height="1"/>
			<polygon class="st7" points="9.3,3.7 9.3,3.9 8.5,3.9 			"/>
			<polygon class="st7" points="9.3,2.9 9.3,3.7 8.5,3.9 8.5,2.9 			"/>
			<rect x="8.5" y="1.9" class="st7" width="0.9" height="1"/>
			<rect x="7.6" y="25.2" class="st2" width="0.9" height="1"/>
			<rect x="7.6" y="24.2" class="st4" width="0.9" height="1"/>
			<rect x="7.6" y="23.2" class="st4" width="0.9" height="1"/>
			<polygon class="st2" points="8.5,22.3 8.5,23.2 7.6,23.2 7.6,22.3 			"/>
			<polygon class="st2" points="8.5,21.3 8.5,22.3 7.6,22.3 7.7,21.3 			"/>
			<polygon class="st2" points="8.5,20.3 8.5,21.3 7.7,21.3 7.7,20.3 			"/>
			<polygon class="st4" points="8.5,19.4 8.5,20.3 7.7,20.3 7.8,19.4 			"/>
			<polygon class="st2" points="8.5,18.4 8.5,19.4 7.8,19.4 7.8,18.4 			"/>
			<polygon class="st4" points="8.5,17.4 8.5,18.4 7.8,18.4 7.9,17.4 			"/>
			<polygon class="st3" points="8.5,16.5 8.5,17.4 7.9,17.4 7.9,16.5 			"/>
			<polygon class="st1" points="8.5,15.5 8.5,16.5 7.9,16.5 8,15.5 			"/>
			<polygon class="st7" points="8.5,14.5 8.5,15.5 8,15.5 8,14.5 			"/>
			<polygon class="st3" points="8.5,13.6 8.5,14.5 8,14.5 8,13.6 			"/>
			<polygon class="st6" points="8.5,12.6 8.5,13.6 8,13.6 8.1,12.6 			"/>
			<polygon class="st7" points="8.5,11.6 8.5,12.6 8.1,12.6 8.1,11.6 			"/>
			<polygon class="st6" points="8.5,10.7 8.5,11.6 8.1,11.6 8.2,10.7 			"/>
			<polygon class="st3" points="8.5,9.7 8.5,10.7 8.2,10.7 8.2,9.7 			"/>
			<polygon class="st6" points="8.5,8.7 8.5,9.7 8.2,9.7 8.3,8.7 			"/>
			<polygon class="st6" points="8.5,7.7 8.5,8.7 8.3,8.7 8.3,7.7 			"/>
			<polygon class="st6" points="8.5,6.8 8.5,7.7 8.3,7.7 8.3,6.8 			"/>
			<polygon class="st6" points="8.5,5.8 8.5,6.8 8.3,6.8 8.4,5.8 			"/>
			<polygon class="st4" points="8.5,4.8 8.5,5.8 8.4,5.8 8.4,4.8 			"/>
			<polygon class="st6" points="8.5,3.9 8.5,4.8 8.4,4.8 			"/>
			<rect x="7.6" y="2.9" class="st6" width="0.9" height="1"/>
			<rect x="7.6" y="1.9" class="st6" width="0.9" height="1"/>
			<polygon class="st6" points="8.5,3.9 8.4,4.8 7.6,4.8 7.6,3.9 			"/>
			<polygon class="st4" points="8.4,4.8 8.4,5.8 7.6,5.8 7.6,4.8 			"/>
			<polygon class="st6" points="8.4,5.8 8.3,6.8 7.6,6.8 7.6,5.8 			"/>
			<polygon class="st6" points="8.3,6.8 8.3,7.7 7.6,7.7 7.6,6.8 			"/>
			<polygon class="st6" points="8.3,7.7 8.3,8.7 7.6,8.7 7.6,7.7 			"/>
			<polygon class="st6" points="8.3,8.7 8.2,9.7 7.6,9.7 7.6,8.7 			"/>
			<polygon class="st3" points="8.2,9.7 8.2,10.7 7.6,10.7 7.6,9.7 			"/>
			<polygon class="st6" points="8.2,10.7 8.1,11.6 7.6,11.6 7.6,10.7 			"/>
			<polygon class="st7" points="8.1,11.6 8.1,12.6 7.6,12.6 7.6,11.6 			"/>
			<polygon class="st6" points="8.1,12.6 8,13.6 7.6,13.6 7.6,12.6 			"/>
			<polygon class="st3" points="8,13.6 8,14.5 7.6,14.5 7.6,13.6 			"/>
			<polygon class="st7" points="8,14.5 8,15.5 7.6,15.5 7.6,14.5 			"/>
			<polygon class="st1" points="8,15.5 7.9,16.5 7.6,16.5 7.6,15.5 			"/>
			<polygon class="st3" points="7.9,16.5 7.9,17.4 7.6,17.4 7.6,16.5 			"/>
			<polygon class="st4" points="7.9,17.4 7.8,18.4 7.6,18.4 7.6,17.4 			"/>
			<polygon class="st2" points="7.8,18.4 7.8,19.4 7.6,19.4 7.6,18.4 			"/>
			<polygon class="st4" points="7.8,19.4 7.7,20.3 7.6,20.3 7.6,19.4 			"/>
			<polygon class="st2" points="7.7,20.3 7.7,21.3 7.6,21.3 7.6,20.3 			"/>
			<polygon class="st2" points="7.7,21.3 7.6,22.3 7.6,22.3 7.6,21.3 			"/>
			<polygon class="st2" points="7.6,22.3 7.6,23.2 7.6,22.3 			"/>
			<rect x="6.7" y="26.2" class="st1" width="0.9" height="1"/>
			<rect x="6.7" y="25.2" class="st4" width="0.9" height="1"/>
			<rect x="6.7" y="24.2" class="st1" width="0.9" height="1"/>
			<polygon class="st2" points="7.6,23.2 7.6,24.2 6.7,24.2 6.7,23.7 			"/>
			<rect x="6.7" y="22.3" class="st2" width="0.9" height="1"/>
			<rect x="6.7" y="21.3" class="st1" width="0.9" height="1"/>
			<rect x="6.7" y="20.3" class="st4" width="0.9" height="1"/>
			<rect x="6.7" y="19.4" class="st4" width="0.9" height="1"/>
			<rect x="6.7" y="18.4" class="st4" width="0.9" height="1"/>
			<rect x="6.7" y="17.4" class="st2" width="0.9" height="1"/>
			<rect x="6.7" y="16.5" class="st4" width="0.9" height="1"/>
			<rect x="6.7" y="15.5" class="st3" width="0.9" height="1"/>
			<rect x="6.7" y="14.5" class="st3" width="0.9" height="1"/>
			<rect x="6.7" y="13.6" class="st3" width="0.9" height="1"/>
			<rect x="6.7" y="12.6" class="st6" width="0.9" height="1"/>
			<rect x="6.7" y="11.6" class="st6" width="0.9" height="1"/>
			<rect x="6.7" y="10.7" class="st6" width="0.9" height="1"/>
			<rect x="6.7" y="9.7" class="st4" width="0.9" height="1"/>
			<rect x="6.7" y="8.7" class="st6" width="0.9" height="1"/>
			<rect x="6.7" y="7.7" class="st3" width="0.9" height="1"/>
			<rect x="6.7" y="6.8" class="st6" width="0.9" height="1"/>
			<rect x="6.7" y="5.8" class="st7" width="0.9" height="1"/>
			<rect x="6.7" y="4.8" class="st7" width="0.9" height="1"/>
			<rect x="6.7" y="3.9" class="st6" width="0.9" height="1"/>
			<rect x="6.7" y="2.9" class="st6" width="0.9" height="1"/>
			<rect x="6.7" y="1.9" class="st6" width="0.9" height="1"/>
			<polygon class="st2" points="7.6,23.2 6.7,23.7 6.7,23.2 			"/>
			<rect x="5.9" y="25.2" class="st1" width="0.9" height="1"/>
			<rect x="5.9" y="24.2" class="st2" width="0.9" height="1"/>
			<polygon class="st4" points="6.7,23.7 6.7,24.2 5.9,24.2 			"/>
			<polygon class="st4" points="6.7,23.2 6.7,23.7 5.9,24.2 5.9,23.2 			"/>
			<rect x="5.9" y="22.3" class="st4" width="0.9" height="1"/>
			<rect x="5.9" y="21.3" class="st4" width="0.9" height="1"/>
			<rect x="5.9" y="20.3" class="st4" width="0.9" height="1"/>
			<rect x="5.9" y="19.4" class="st3" width="0.9" height="1"/>
			<rect x="5.9" y="18.4" class="st2" width="0.9" height="1"/>
			<rect x="5.9" y="17.4" class="st4" width="0.9" height="1"/>
			<rect x="5.9" y="16.5" class="st3" width="0.9" height="1"/>
			<rect x="5.9" y="15.5" class="st2" width="0.9" height="1"/>
			<rect x="5.9" y="14.5" class="st3" width="0.9" height="1"/>
			<rect x="5.9" y="13.6" class="st6" width="0.9" height="1"/>
			<rect x="5.9" y="12.6" class="st3" width="0.9" height="1"/>
			<rect x="5.9" y="11.6" class="st4" width="0.9" height="1"/>
			<rect x="5.9" y="10.7" class="st6" width="0.9" height="1"/>
			<rect x="5.9" y="9.7" class="st7" width="0.9" height="1"/>
			<rect x="5.9" y="8.7" class="st6" width="0.9" height="1"/>
			<rect x="5.9" y="7.7" class="st7" width="0.9" height="1"/>
			<rect x="5.9" y="6.8" class="st3" width="0.9" height="1"/>
			<rect x="5.9" y="5.8" class="st7" width="0.9" height="1"/>
			<rect x="5.9" y="4.8" class="st6" width="0.9" height="1"/>
			<rect x="5.9" y="3.9" class="st7" width="0.9" height="1"/>
			<rect x="5.9" y="2.9" class="st6" width="0.9" height="1"/>
			<rect x="5.9" y="1.9" class="st4" width="0.9" height="1"/>
			<rect x="5.9" y="1" class="st7" width="0.9" height="1"/>
			<polygon class="st2" points="5.9,25.2 5.9,26.2 5.2,26.2 5,26 5,25.2 			"/>
			<polygon class="st2" points="5.9,24.2 5.9,25.2 5,25.2 5,24.7 			"/>
			<rect x="5" y="23.2" class="st2" width="0.9" height="1"/>
			<rect x="5" y="22.3" class="st4" width="0.9" height="1"/>
			<rect x="5" y="21.3" class="st3" width="0.9" height="1"/>
			<rect x="5" y="20.3" class="st1" width="0.9" height="1"/>
			<rect x="5" y="19.4" class="st4" width="0.9" height="1"/>
			<rect x="5" y="18.4" class="st4" width="0.9" height="1"/>
			<rect x="5" y="17.4" class="st7" width="0.9" height="1"/>
			<rect x="5" y="16.5" class="st7" width="0.9" height="1"/>
			<rect x="5" y="15.5" class="st6" width="0.9" height="1"/>
			<rect x="5" y="14.5" class="st6" width="0.9" height="1"/>
			<rect x="5" y="13.6" class="st6" width="0.9" height="1"/>
			<rect x="5" y="12.6" class="st7" width="0.9" height="1"/>
			<rect x="5" y="11.6" class="st7" width="0.9" height="1"/>
			<rect x="5" y="10.7" class="st5" width="0.9" height="1"/>
			<rect x="5" y="8.7" class="st6" width="0.9" height="1"/>
			<rect x="5" y="7.7" class="st4" width="0.9" height="1"/>
			<rect x="5" y="6.8" class="st6" width="0.9" height="1"/>
			<rect x="5" y="5.8" class="st6" width="0.9" height="1"/>
			<rect x="5" y="4.8" class="st7" width="0.9" height="1"/>
			<rect x="5" y="2.9" class="st7" width="0.9" height="1"/>
			<rect x="5" y="1.9" class="st5" width="0.9" height="1"/>
			<polygon class="st2" points="5.9,24.2 5,24.7 5,24.2 			"/>
			<polygon class="st2" points="5.2,26.2 5,26.2 5,26 			"/>
			<polygon class="st0" points="5,25.2 5,26 4.1,25.2 			"/>
			<polygon class="st2" points="5,24.7 5,25.2 4.1,25.2 			"/>
			<polygon class="st2" points="5,24.2 5,24.7 4.1,25.2 4.1,24.2 			"/>
			<rect x="4.1" y="23.2" class="st4" width="0.9" height="1"/>
			<rect x="4.1" y="22.3" class="st4" width="0.9" height="1"/>
			<rect x="4.1" y="19.4" class="st2" width="0.9" height="1"/>
			<rect x="4.1" y="18.4" class="st2" width="0.9" height="1"/>
			<rect x="4.1" y="17.4" class="st2" width="0.9" height="1"/>
			<rect x="4.1" y="16.5" class="st2" width="0.9" height="1"/>
			<rect x="4.1" y="7.7" class="st5" width="0.9" height="1"/>
			<rect x="4.1" y="6.8" class="st7" width="0.9" height="1"/>
			<rect x="4.1" y="5.8" class="st5" width="0.9" height="1"/>
			<rect x="4.1" y="4.8" class="st7" width="0.9" height="1"/>
		</g>
	</g>
</g>
</svg>
